<svg width="38" height="38" viewBox="0 0 38 38" fill="none" xmlns="http://www.w3.org/2000/svg">
<g id="vscode-icons:file-type-pdf2">
<path id="Vector" d="M28.6179 2.46094L35.2252 9.34844V35.5399H10.543V35.6254H35.3095V9.43513L28.6179 2.46094Z" fill="#909090"/>
<path id="Vector_2" d="M28.5363 2.375H10.459V35.5395H35.2255V9.34919L28.5363 2.375Z" fill="#F4F4F4"/>
<path id="Vector_3" d="M10.2776 4.15625H2.68945V12.2633H26.5582V4.15625H10.2776Z" fill="#7A7B7C"/>
<path id="Vector_4" d="M26.6852 12.1257H2.84375V4.0127H26.6852V12.1257Z" fill="#DD2025"/>
<path id="Vector_5" d="M10.7493 5.38419H9.19727V11.0842H10.418V9.16163L10.6876 9.17707C10.9495 9.17256 11.209 9.12564 11.4559 9.03813C11.6724 8.96367 11.8715 8.84612 12.0413 8.69257C12.2141 8.54629 12.3503 8.36168 12.4391 8.15344C12.5582 7.80728 12.6008 7.4394 12.5638 7.07519C12.5564 6.81502 12.5108 6.55735 12.4285 6.31044C12.3535 6.13221 12.2422 5.97153 12.1018 5.83864C11.9613 5.70575 11.7947 5.60356 11.6126 5.53857C11.4552 5.48156 11.2925 5.4402 11.127 5.41507C11.0016 5.39572 10.875 5.3854 10.7481 5.38419M10.5237 8.10832H10.418V6.35082H10.6472C10.7484 6.34352 10.8499 6.35905 10.9442 6.39625C11.0385 6.43346 11.1233 6.49138 11.1923 6.56575C11.3351 6.75696 11.4115 6.9897 11.4096 7.22838C11.4096 7.5205 11.4096 7.78532 11.146 7.97175C10.956 8.07621 10.7399 8.12443 10.5237 8.10832ZM14.883 5.36875C14.7512 5.36875 14.623 5.37825 14.5327 5.38182L14.2501 5.38894H13.3238V11.0889H14.414C14.8306 11.1004 15.2453 11.0298 15.6347 10.8811C15.9481 10.7568 16.2256 10.5564 16.4422 10.2981C16.6528 10.0374 16.804 9.73381 16.8851 9.40863C16.9784 9.04035 17.0239 8.66159 17.0205 8.28169C17.0436 7.833 17.0088 7.38322 16.9172 6.94338C16.8303 6.61962 16.6674 6.32124 16.4422 6.07294C16.2655 5.87245 16.0492 5.71072 15.8069 5.59794C15.5988 5.50166 15.3799 5.43069 15.155 5.38657C15.0655 5.37179 14.9749 5.36503 14.8842 5.36638M14.6681 10.0416H14.5493V6.40307H14.5648C14.8096 6.3749 15.0573 6.41907 15.2773 6.53013C15.4384 6.65877 15.5696 6.82083 15.662 7.00513C15.7617 7.19909 15.8192 7.41197 15.8306 7.62975C15.8413 7.891 15.8306 8.10475 15.8306 8.28169C15.8355 8.48551 15.8224 8.68936 15.7915 8.89088C15.7549 9.09778 15.6872 9.29795 15.5908 9.48463C15.4816 9.65819 15.3342 9.80443 15.1597 9.91213C15.0132 10.0069 14.8397 10.0511 14.6657 10.038M20.6982 5.38894H17.8126V11.0889H19.0333V8.82794H20.5771V7.76869H19.0333V6.44819H20.6958V5.38894" fill="#464648"/>
<path id="Vector_6" d="M25.8658 24.0525C25.8658 24.0525 29.6515 23.3662 29.6515 24.6594C29.6515 25.9526 27.3062 25.4265 25.8658 24.0525ZM23.0669 24.1511C22.4654 24.284 21.8792 24.4786 21.3177 24.7318L21.7927 23.663C22.2677 22.5943 22.7605 21.1372 22.7605 21.1372C23.3273 22.0912 23.9868 22.9869 24.7294 23.8115C24.1693 23.895 23.6143 24.0092 23.0669 24.1535V24.1511ZM21.5682 16.4324C21.5682 15.3054 21.9328 14.9979 22.2166 14.9979C22.5004 14.9979 22.8199 15.1344 22.8305 16.1129C22.7381 17.0968 22.5321 18.0668 22.2166 19.0033C21.7845 18.217 21.5609 17.3331 21.567 16.4359L21.5682 16.4324ZM16.0475 28.9201C14.8862 28.2254 18.4831 26.0867 19.135 26.0179C19.1315 26.019 17.2635 29.6469 16.0475 28.9201ZM30.7571 24.8126C30.7452 24.6938 30.6384 23.3792 28.299 23.4351C27.3239 23.4193 26.3493 23.4881 25.386 23.6405C24.453 22.7005 23.6495 21.6402 22.9968 20.4877C23.408 19.2995 23.6568 18.0612 23.7366 16.8064C23.7022 15.3814 23.3614 14.5644 22.2689 14.5763C21.1764 14.5882 21.0172 15.5441 21.1609 16.9667C21.3017 17.9227 21.5672 18.8561 21.9506 19.7431C21.9506 19.7431 21.4459 21.3142 20.7785 22.8769C20.1112 24.4397 19.6552 25.2591 19.6552 25.2591C18.4947 25.6368 17.4022 26.1981 16.4192 26.9215C15.4407 27.8324 15.0429 28.5318 15.5583 29.2312C16.0024 29.8345 17.5569 29.971 18.9462 28.1506C19.6844 27.2104 20.3589 26.2217 20.965 25.1914C20.965 25.1914 23.0835 24.6107 23.7425 24.4515C24.4016 24.2924 25.1984 24.1665 25.1984 24.1665C25.1984 24.1665 27.1329 26.1129 28.9984 26.044C30.864 25.9751 30.7737 24.9289 30.7619 24.8149" fill="#DD2025"/>
<path id="Vector_7" d="M28.4453 2.4668V9.44098H35.1345L28.4453 2.4668Z" fill="#909090"/>
<path id="Vector_8" d="M28.5371 2.375V9.34919H35.2263L28.5371 2.375Z" fill="#F4F4F4"/>
<path id="Vector_9" d="M10.6575 5.29239H9.10547V10.9924H10.331V9.07102L10.6017 9.08646C10.8636 9.08195 11.1231 9.03503 11.37 8.94752C11.5865 8.87303 11.7856 8.75548 11.9555 8.60196C12.127 8.45529 12.2619 8.27071 12.3497 8.06283C12.4688 7.71667 12.5114 7.34879 12.4744 6.98458C12.467 6.72441 12.4214 6.46674 12.339 6.21983C12.2641 6.0416 12.1528 5.88092 12.0124 5.74803C11.8719 5.61514 11.7053 5.51295 11.5232 5.44796C11.365 5.3904 11.2016 5.34863 11.0352 5.32327C10.9098 5.30393 10.7832 5.29361 10.6563 5.29239M10.4319 8.01652H10.3262V6.25902H10.5566C10.6577 6.25173 10.7592 6.26725 10.8536 6.30446C10.9479 6.34166 11.0327 6.39959 11.1017 6.47396C11.2445 6.66516 11.3209 6.8979 11.319 7.13658C11.319 7.42871 11.319 7.69352 11.0553 7.87996C10.8654 7.98442 10.6492 8.03145 10.4331 8.01533M14.7912 5.27696C14.6594 5.27696 14.5312 5.28646 14.4409 5.29002L14.1618 5.29714H13.2356V10.9971H14.3257C14.7423 11.0086 15.1571 10.938 15.5465 10.7893C15.8599 10.665 16.1374 10.4646 16.354 10.2063C16.5646 9.94556 16.7158 9.64201 16.7969 9.31683C16.8902 8.94855 16.9357 8.56979 16.9323 8.18989C16.9553 7.74121 16.9206 7.29142 16.829 6.85158C16.742 6.52783 16.5792 6.22944 16.354 5.98115C16.1773 5.78065 15.9609 5.61892 15.7187 5.50614C15.5106 5.40986 15.2917 5.33889 15.0667 5.29477C14.9772 5.27999 14.8866 5.27323 14.796 5.27458M14.5798 9.94977H14.4611V6.31127H14.4765C14.7213 6.2831 14.969 6.32728 15.189 6.43833C15.3501 6.56697 15.4814 6.72903 15.5738 6.91333C15.6735 7.10729 15.7309 7.32018 15.7424 7.53796C15.7531 7.79921 15.7424 8.01296 15.7424 8.18989C15.7472 8.39371 15.7341 8.59756 15.7032 8.79908C15.6666 9.00598 15.599 9.20616 15.5025 9.39283C15.3934 9.56639 15.2459 9.71264 15.0715 9.82033C14.925 9.91509 14.7515 9.9593 14.5775 9.94621M20.6064 5.29714H17.7208V10.9971H18.9415V8.73614H20.4853V7.6769H18.9415V6.3564H20.604V5.29714" fill="white"/>
</g>
</svg>
