<svg width="16" height="16" viewBox="0 0 16 16" fill="none" xmlns="http://www.w3.org/2000/svg">
<g id="ant-design:file-pdf-filled">
<path id="Vector" d="M13.3531 4.51094C13.4469 4.60469 13.5 4.73125 13.5 4.86406V14.5C13.5 14.7766 13.2766 15 13 15H3C2.72344 15 2.5 14.7766 2.5 14.5V1.5C2.5 1.22344 2.72344 1 3 1H9.63594C9.76875 1 9.89688 1.05313 9.99063 1.14688L13.3531 4.51094ZM12.3469 5.09375L9.40625 2.15313V5.09375H12.3469ZM9.89406 9.95719C9.65687 9.94938 9.40469 9.96766 9.11828 10.0034C8.73859 9.76922 8.48297 9.4475 8.30141 8.97484L8.31812 8.90641L8.3375 8.82547C8.40469 8.54219 8.44078 8.33547 8.45156 8.12703C8.45969 7.96969 8.45094 7.82453 8.42297 7.69C8.37141 7.39953 8.16594 7.22969 7.90703 7.21922C7.66562 7.20937 7.44375 7.34422 7.38703 7.55312C7.29469 7.89094 7.34875 8.33547 7.54453 9.09359C7.29516 9.68812 6.96562 10.3852 6.74453 10.7739C6.44937 10.9261 6.21953 11.0645 6.02641 11.218C5.77172 11.4206 5.61266 11.6289 5.56891 11.8477C5.54766 11.9491 5.57969 12.0816 5.65266 12.1902C5.73547 12.3133 5.86016 12.3933 6.00969 12.4048C6.38703 12.4341 6.85078 12.045 7.36281 11.1664C7.41422 11.1492 7.46859 11.1311 7.535 11.1086L7.72094 11.0458C7.83859 11.0061 7.92391 10.9777 8.00828 10.9503C8.37391 10.8313 8.65047 10.7561 8.90203 10.7133C9.33922 10.9473 9.84453 11.1008 10.1848 11.1008C10.4658 11.1008 10.6556 10.9552 10.7242 10.7259C10.7844 10.5247 10.7367 10.2913 10.6073 10.1622C10.4736 10.0308 10.2277 9.96797 9.89406 9.95719ZM6.01922 11.9637V11.9581L6.02125 11.9528C6.04411 11.8937 6.07346 11.8373 6.10875 11.7847C6.17562 11.6819 6.26766 11.5737 6.38172 11.4586C6.44297 11.3969 6.50672 11.3367 6.58156 11.2692C6.59828 11.2542 6.70516 11.1591 6.72516 11.1403L6.89969 10.9778L6.77281 11.1798C6.58031 11.4867 6.40625 11.7077 6.25719 11.8517C6.20234 11.9048 6.15406 11.9439 6.115 11.9691C6.1021 11.9777 6.08845 11.9851 6.07422 11.9913C6.06781 11.9939 6.06219 11.9955 6.05656 11.9959C6.05062 11.9967 6.04459 11.9959 6.03906 11.9936C6.03318 11.9911 6.02816 11.987 6.02463 11.9817C6.0211 11.9764 6.01922 11.9701 6.01922 11.9637ZM7.98703 8.55313L7.95172 8.61563L7.92984 8.54719C7.88141 8.39359 7.84578 8.16219 7.83594 7.95344C7.82469 7.71594 7.84359 7.57344 7.91859 7.57344C8.02391 7.57344 8.07219 7.74219 8.07594 7.99609C8.07937 8.21922 8.04422 8.45141 7.98688 8.55313H7.98703ZM7.89625 9.46656L7.92016 9.40328L7.95281 9.46266C8.13547 9.79453 8.3725 10.0714 8.63313 10.2644L8.68937 10.3059L8.62078 10.32C8.36562 10.3728 8.12797 10.4522 7.80297 10.5833C7.83688 10.5695 7.46516 10.7217 7.37109 10.7578L7.28906 10.7892L7.33281 10.713C7.52578 10.377 7.70406 9.97359 7.89609 9.46656H7.89625ZM10.3591 10.6581C10.2362 10.7066 9.97187 10.6633 9.50641 10.4645L9.38828 10.4142L9.51641 10.4048C9.88047 10.3778 10.1383 10.3978 10.2886 10.4528C10.3527 10.4762 10.3953 10.5058 10.4142 10.5395C10.4242 10.5555 10.4275 10.5747 10.4235 10.5931C10.4196 10.6115 10.4086 10.6277 10.393 10.6381C10.383 10.6469 10.3715 10.6537 10.3591 10.6581Z" fill="#3F3F3F"/>
</g>
</svg>
