<svg width="76" height="77" viewBox="0 0 76 77" fill="none" xmlns="http://www.w3.org/2000/svg">
<g id="vuesax/bold/frame">
<g id="frame">
<path id="Vector" d="M38.0007 7.2627C29.704 7.2627 22.959 14.0077 22.959 22.3044C22.959 30.4427 29.324 37.0294 37.6207 37.3144C37.874 37.2827 38.1273 37.2827 38.3173 37.3144C38.3807 37.3144 38.4123 37.3144 38.4756 37.3144C38.5073 37.3144 38.5073 37.3144 38.539 37.3144C46.6457 37.0294 53.0107 30.4427 53.0423 22.3044C53.0423 14.0077 46.2973 7.2627 38.0007 7.2627Z" fill="#EFEFEF"/>
<path id="Vector_2" d="M54.087 45.7378C45.252 39.8478 30.8437 39.8478 21.9454 45.7378C17.9237 48.4295 15.707 52.0711 15.707 55.9661C15.707 59.8611 17.9237 63.4711 21.9137 66.1311C26.347 69.1078 32.1737 70.5961 38.0004 70.5961C43.827 70.5961 49.6537 69.1078 54.087 66.1311C58.077 63.4395 60.2937 59.8295 60.2937 55.9028C60.262 52.0078 58.077 48.3978 54.087 45.7378Z" fill="#EFEFEF"/>
</g>
</g>
</svg>
