<svg width="16" height="17" viewBox="0 0 16 17" fill="none" xmlns="http://www.w3.org/2000/svg">
<g id="vuesax/bold/camera">
<g id="camera">
<path id="Vector" d="M10.8089 4.14643L10.8088 4.14645L10.8109 4.15033C11.0393 4.59094 11.4969 4.87858 11.9995 4.87858C13.3024 4.87858 14.3339 5.97721 14.25 7.27241L14.25 7.27287L13.9033 12.7795C13.8623 13.4295 13.6698 13.9917 13.2977 14.3894C12.9304 14.782 12.359 15.0452 11.4928 15.0452H4.50613C3.6398 15.0452 3.06664 14.7819 2.69851 14.3893C2.32578 13.9917 2.13351 13.4298 2.09571 12.7807L2.09563 12.7795L1.74897 7.27287L1.74894 7.27241C1.66499 5.97721 2.69656 4.87858 3.99946 4.87858C4.50204 4.87858 4.9596 4.59094 5.18807 4.15033L5.1881 4.15034L5.19004 4.14643L5.66924 3.18136C5.66936 3.18112 5.66949 3.18088 5.66961 3.18064C5.79778 2.92751 6.03767 2.68259 6.33196 2.50027C6.62652 2.31777 6.9531 2.21191 7.23946 2.21191H8.76613C9.04875 2.21191 9.37356 2.31751 9.66755 2.50012C9.96114 2.68247 10.2011 2.92741 10.3293 3.18055C10.3294 3.18082 10.3295 3.18109 10.3297 3.18136L10.8089 4.14643ZM8.99946 5.21191H6.99946C6.58806 5.21191 6.24946 5.55051 6.24946 5.96191C6.24946 6.37332 6.58806 6.71191 6.99946 6.71191H8.99946C9.41087 6.71191 9.74946 6.37332 9.74946 5.96191C9.74946 5.55051 9.41087 5.21191 8.99946 5.21191ZM5.49613 10.4552C5.49613 11.8405 6.62187 12.9586 7.99946 12.9586C9.37705 12.9586 10.5028 11.8405 10.5028 10.4552C10.5028 9.07051 9.3842 7.95191 7.99946 7.95191C6.61472 7.95191 5.49613 9.07051 5.49613 10.4552Z" fill="#DADADA" stroke="#AFAFAF" stroke-width="0.5"/>
</g>
</g>
</svg>
