<svg width="24" height="25" viewBox="0 0 24 25" fill="none" xmlns="http://www.w3.org/2000/svg">
<g id="mingcute:right-line" clip-path="url(#clip0_1782_3062)">
<g id="Group">
<path id="Vector" fill-rule="evenodd" clip-rule="evenodd" d="M12.7068 16.2073C12.5193 16.3948 12.265 16.5001 11.9998 16.5001C11.7347 16.5001 11.4803 16.3948 11.2928 16.2073L5.63582 10.5503C5.54031 10.4581 5.46413 10.3478 5.41172 10.2257C5.35931 10.1037 5.33172 9.97252 5.33057 9.83974C5.32942 9.70696 5.35472 9.57529 5.405 9.45239C5.45528 9.32949 5.52953 9.21784 5.62343 9.12395C5.71732 9.03006 5.82897 8.9558 5.95187 8.90552C6.07476 8.85524 6.20644 8.82994 6.33922 8.83109C6.472 8.83225 6.60322 8.85983 6.72522 8.91224C6.84723 8.96465 6.95757 9.04083 7.04982 9.13634L11.9998 14.0863L16.9498 9.13634C17.1384 8.95418 17.391 8.85339 17.6532 8.85567C17.9154 8.85795 18.1662 8.96312 18.3516 9.14852C18.537 9.33393 18.6422 9.58474 18.6445 9.84694C18.6468 10.1091 18.546 10.3617 18.3638 10.5503L12.7068 16.2073Z" fill="#3F3F3F"/>
</g>
</g>
<defs>
<clipPath id="clip0_1782_3062">
<rect width="24" height="24" fill="white" transform="matrix(0 1 -1 0 24 0.5)"/>
</clipPath>
</defs>
</svg>
