<svg width="14" height="15" viewBox="0 0 14 15" fill="none" xmlns="http://www.w3.org/2000/svg">
<g id="ic:round-close">
<path id="Vector" d="M10.6746 3.83048C10.6207 3.7764 10.5566 3.7335 10.486 3.70422C10.4154 3.67495 10.3398 3.65988 10.2634 3.65988C10.187 3.65988 10.1113 3.67495 10.0408 3.70422C9.97021 3.7335 9.90611 3.7764 9.85214 3.83048L6.99964 6.67714L4.14714 3.82464C4.09314 3.77064 4.02902 3.7278 3.95846 3.69857C3.8879 3.66934 3.81227 3.6543 3.73589 3.6543C3.65952 3.6543 3.58389 3.66934 3.51333 3.69857C3.44276 3.7278 3.37865 3.77064 3.32464 3.82464C3.27064 3.87865 3.2278 3.94276 3.19857 4.01333C3.16934 4.08389 3.1543 4.15952 3.1543 4.23589C3.1543 4.31227 3.16934 4.3879 3.19857 4.45846C3.2278 4.52902 3.27064 4.59314 3.32464 4.64714L6.17714 7.49964L3.32464 10.3521C3.27064 10.4061 3.2278 10.4703 3.19857 10.5408C3.16934 10.6114 3.1543 10.687 3.1543 10.7634C3.1543 10.8398 3.16934 10.9154 3.19857 10.986C3.2278 11.0565 3.27064 11.1206 3.32464 11.1746C3.37865 11.2286 3.44276 11.2715 3.51333 11.3007C3.58389 11.3299 3.65952 11.345 3.73589 11.345C3.81227 11.345 3.8879 11.3299 3.95846 11.3007C4.02902 11.2715 4.09314 11.2286 4.14714 11.1746L6.99964 8.32214L9.85214 11.1746C9.90615 11.2286 9.97026 11.2715 10.0408 11.3007C10.1114 11.3299 10.187 11.345 10.2634 11.345C10.3398 11.345 10.4154 11.3299 10.486 11.3007C10.5565 11.2715 10.6206 11.2286 10.6746 11.1746C10.7286 11.1206 10.7715 11.0565 10.8007 10.986C10.8299 10.9154 10.845 10.8398 10.845 10.7634C10.845 10.687 10.8299 10.6114 10.8007 10.5408C10.7715 10.4703 10.7286 10.4061 10.6746 10.3521L7.82214 7.49964L10.6746 4.64714C10.8963 4.42548 10.8963 4.05214 10.6746 3.83048Z" fill="#C23939"/>
</g>
</svg>
