<svg width="54" height="54" viewBox="0 0 54 54" fill="none" xmlns="http://www.w3.org/2000/svg">
<g id="icons8:upload-2">
<path id="Vector" d="M27 6.75C20.0475 6.75 14.58 12.0319 13.8156 18.7734C12.3452 19.0104 10.9662 19.6405 9.82454 20.597C8.68293 21.5535 7.82118 22.801 7.3305 24.2072C3.17925 25.4036 0 29.106 0 33.75C0 39.3592 4.51575 43.875 10.125 43.875H43.875C49.4842 43.875 54 39.3592 54 33.75C54 30.78 52.5572 28.1205 50.4664 26.2609C50.0749 20.331 45.3448 15.5993 39.393 15.2921C37.3612 10.3494 32.7004 6.75 27 6.75ZM27 10.125C31.6609 10.125 35.3869 13.1119 36.7031 17.3475L37.0744 18.5625H38.8125C43.4616 18.5625 47.25 22.3509 47.25 27V27.8438L47.9351 28.3719C48.762 29.0057 49.4339 29.8192 49.8999 30.7509C50.3659 31.6827 50.6139 32.7083 50.625 33.75C50.625 37.5907 47.7158 40.5 43.875 40.5H10.125C6.28425 40.5 3.375 37.5907 3.375 33.75C3.375 30.3412 5.82188 27.6952 8.91 27.1586L10.0187 26.9477L10.2296 25.8373C10.7359 23.5642 12.7507 21.9375 15.1875 21.9375H16.875V20.25C16.875 14.5631 21.3131 10.125 27 10.125ZM27 19.5649L25.785 20.7242L19.035 27.4742L21.465 29.9042L25.3125 26.0499V37.125H28.6875V26.0499L32.535 29.9008L34.965 27.4708L28.215 20.7208L27 19.5649Z" fill="#AFAFAF"/>
</g>
</svg>
