<svg width="12" height="12" viewBox="0 0 12 12" fill="none" xmlns="http://www.w3.org/2000/svg">
<g id="vuesax/bold/coin">
<g id="coin">
<path id="Vector" d="M10.9599 8.37529C10.7949 9.70529 9.70493 10.7953 8.37493 10.9603C7.56993 11.0603 6.81993 10.8403 6.23493 10.4103C5.89993 10.1653 5.97993 9.64529 6.37993 9.52529C7.88493 9.07029 9.06993 7.88029 9.52993 6.37529C9.64993 5.98029 10.1699 5.90029 10.4149 6.23029C10.8399 6.82029 11.0599 7.57029 10.9599 8.37529Z" fill="white"/>
<path id="Vector_2" d="M4.995 1C2.79 1 1 2.79 1 4.995C1 7.2 2.79 8.99 4.995 8.99C7.2 8.99 8.99 7.2 8.99 4.995C8.985 2.79 7.2 1 4.995 1ZM4.525 4.435L5.73 4.855C6.165 5.01 6.375 5.315 6.375 5.785C6.375 6.325 5.945 6.77 5.42 6.77H5.375V6.795C5.375 7 5.205 7.17 5 7.17C4.795 7.17 4.625 7 4.625 6.795V6.765C4.07 6.74 3.625 6.275 3.625 5.695C3.625 5.49 3.795 5.32 4 5.32C4.205 5.32 4.375 5.49 4.375 5.695C4.375 5.875 4.505 6.02 4.665 6.02H5.415C5.53 6.02 5.62 5.915 5.62 5.785C5.62 5.61 5.59 5.6 5.475 5.56L4.27 5.14C3.84 4.99 3.625 4.685 3.625 4.21C3.625 3.67 4.055 3.225 4.58 3.225H4.625V3.205C4.625 3 4.795 2.83 5 2.83C5.205 2.83 5.375 3 5.375 3.205V3.235C5.93 3.26 6.375 3.725 6.375 4.305C6.375 4.51 6.205 4.68 6 4.68C5.795 4.68 5.625 4.51 5.625 4.305C5.625 4.125 5.495 3.98 5.335 3.98H4.585C4.47 3.98 4.38 4.085 4.38 4.215C4.375 4.385 4.405 4.395 4.525 4.435Z" fill="white"/>
</g>
</g>
</svg>
