<svg width="14" height="15" viewBox="0 0 14 15" fill="none" xmlns="http://www.w3.org/2000/svg">
<g id="uim:process">
<path id="Vector" d="M5.03158 5.45866H2.40658C2.25187 5.45866 2.10349 5.3972 1.9941 5.2878C1.8847 5.17841 1.82324 5.03004 1.82324 4.87533V2.25033C1.82324 2.09562 1.8847 1.94724 1.9941 1.83785C2.10349 1.72845 2.25187 1.66699 2.40658 1.66699C2.56129 1.66699 2.70966 1.72845 2.81905 1.83785C2.92845 1.94724 2.98991 2.09562 2.98991 2.25033V4.29199H5.03158C5.18629 4.29199 5.33466 4.35345 5.44405 4.46285C5.55345 4.57224 5.61491 4.72062 5.61491 4.87533C5.61491 5.03004 5.55345 5.17841 5.44405 5.2878C5.33466 5.3972 5.18629 5.45866 5.03158 5.45866Z" fill="#1B75BB"/>
<path id="Vector_2" d="M12.2499 8.08286C12.0952 8.08286 11.9468 8.0214 11.8374 7.91201C11.728 7.80261 11.6666 7.65424 11.6666 7.49953C11.667 6.47259 11.3285 5.47422 10.7035 4.65934C10.0786 3.84446 9.20215 3.25863 8.21023 2.99277C7.2183 2.7269 6.16636 2.79587 5.21763 3.18896C4.26891 3.58205 3.47645 4.27728 2.96324 5.16678C2.88573 5.30068 2.7582 5.39831 2.60871 5.43818C2.45922 5.47806 2.30001 5.45691 2.16611 5.37941C2.03221 5.3019 1.93458 5.17437 1.89471 5.02488C1.85483 4.87539 1.87598 4.71618 1.95349 4.58228C2.5953 3.47059 3.58605 2.60177 4.77204 2.11063C5.95803 1.61949 7.27296 1.53347 8.51282 1.86592C9.75269 2.19838 10.8482 2.93071 11.6294 3.94932C12.4105 4.96793 12.8337 6.21587 12.8332 7.49953C12.8332 7.65424 12.7718 7.80261 12.6624 7.91201C12.553 8.0214 12.4046 8.08286 12.2499 8.08286ZM11.5937 13.3329C11.4389 13.3329 11.2906 13.2714 11.1812 13.162C11.0718 13.0526 11.0103 12.9042 11.0103 12.7495V10.7079H8.96865C8.81394 10.7079 8.66557 10.6464 8.55617 10.537C8.44678 10.4276 8.38532 10.2792 8.38532 10.1245C8.38532 9.96982 8.44678 9.82145 8.55617 9.71205C8.66557 9.60265 8.81394 9.5412 8.96865 9.5412H11.5937C11.7484 9.5412 11.8967 9.60265 12.0061 9.71205C12.1155 9.82145 12.177 9.96982 12.177 10.1245V12.7495C12.177 12.9042 12.1155 13.0526 12.0061 13.162C11.8967 13.2714 11.7484 13.3329 11.5937 13.3329Z" fill="#1B75BB"/>
<path id="Vector_3" d="M7.00033 13.3337C5.4538 13.3318 3.97114 12.7166 2.87758 11.6231C1.78402 10.5295 1.16884 9.04685 1.16699 7.50033C1.16699 7.34562 1.22845 7.19724 1.33785 7.08785C1.44724 6.97845 1.59562 6.91699 1.75033 6.91699C1.90504 6.91699 2.05341 6.97845 2.1628 7.08785C2.2722 7.19724 2.33366 7.34562 2.33366 7.50033C2.33322 8.52726 2.67173 9.52563 3.29669 10.3405C3.92164 11.1554 4.79808 11.7412 5.79 12.0071C6.78193 12.273 7.83387 12.204 8.78259 11.8109C9.73132 11.4178 10.5238 10.7226 11.037 9.83308C11.0754 9.76677 11.1264 9.70868 11.1873 9.66211C11.2481 9.61555 11.3175 9.58142 11.3915 9.56167C11.4655 9.54193 11.5427 9.53696 11.6187 9.54704C11.6946 9.55713 11.7678 9.58207 11.8341 9.62045C11.9004 9.65883 11.9585 9.70989 12.0051 9.77072C12.0516 9.83155 12.0858 9.90096 12.1055 9.97498C12.1253 10.049 12.1302 10.1262 12.1201 10.2021C12.1101 10.2781 12.0851 10.3513 12.0467 10.4176C11.5337 11.3022 10.7978 12.0369 9.91239 12.5486C9.02697 13.0602 8.02294 13.3309 7.00033 13.3337Z" fill="#1B75BB"/>
</g>
</svg>
