<svg width="9" height="9" viewBox="0 0 9 9" fill="none" xmlns="http://www.w3.org/2000/svg">
<path d="M3.64024 1.03172C3.84803 0.39222 4.75275 0.392219 4.96054 1.03172L5.46918 2.59718C5.56211 2.88317 5.82862 3.0768 6.12933 3.0768H7.77535C8.44776 3.0768 8.72733 3.93724 8.18334 4.33247L6.85168 5.29998C6.6084 5.47673 6.50661 5.79003 6.59953 6.07602L7.10818 7.64148C7.31596 8.28098 6.58403 8.81276 6.04004 8.41753L4.70838 7.45002C4.4651 7.27327 4.13568 7.27327 3.8924 7.45002L2.56074 8.41753C2.01675 8.81276 1.28482 8.28098 1.4926 7.64148L2.00125 6.07602C2.09418 5.79003 1.99238 5.47673 1.7491 5.29998L0.41744 4.33247C-0.126549 3.93724 0.153023 3.0768 0.825431 3.0768H2.47145C2.77216 3.0768 3.03867 2.88317 3.1316 2.59718L3.64024 1.03172Z" fill="#DEB214"/>
</svg>
