<svg width="99" height="98" viewBox="0 0 99 98" fill="none" xmlns="http://www.w3.org/2000/svg">
<g id="ep:success-filled">
<path id="Vector" d="M49.5 6.125C60.8712 6.125 71.7766 10.6422 79.8172 18.6828C87.8578 26.7234 92.375 37.6288 92.375 49C92.375 60.3712 87.8578 71.2766 79.8172 79.3172C71.7766 87.3578 60.8712 91.875 49.5 91.875C38.1288 91.875 27.2234 87.3578 19.1828 79.3172C11.1422 71.2766 6.625 60.3712 6.625 49C6.625 37.6288 11.1422 26.7234 19.1828 18.6828C27.2234 10.6422 38.1288 6.125 49.5 6.125ZM44.159 57.4586L34.6346 47.9281C34.2932 47.5867 33.8878 47.3158 33.4417 47.131C32.9956 46.9463 32.5174 46.8511 32.0346 46.8511C31.5517 46.8511 31.0735 46.9463 30.6274 47.131C30.1813 47.3158 29.7759 47.5867 29.4345 47.9281C28.7449 48.6177 28.3575 49.553 28.3575 50.5282C28.3575 51.5034 28.7449 52.4387 29.4345 53.1283L41.562 65.2558C41.9025 65.5989 42.3075 65.8713 42.7538 66.0571C43.2 66.243 43.6787 66.3387 44.1621 66.3387C44.6455 66.3387 45.1241 66.243 45.5703 66.0571C46.0166 65.8713 46.4216 65.5989 46.7621 65.2558L71.8746 40.1371C72.2206 39.7971 72.4959 39.3919 72.6845 38.945C72.8732 38.498 72.9715 38.0182 72.9737 37.5331C72.976 37.0479 72.8821 36.5672 72.6977 36.1185C72.5132 35.6698 72.2417 35.2621 71.8989 34.9189C71.5561 34.5756 71.1487 34.3037 70.7002 34.1187C70.2518 33.9337 69.7711 33.8393 69.286 33.841C68.8009 33.8427 68.3209 33.9404 67.8737 34.1285C67.4266 34.3166 67.0211 34.5914 66.6806 34.937L44.159 57.4586Z" fill="#4CAF50"/>
</g>
</svg>
