<svg width="10" height="9" viewBox="0 0 10 9" fill="none" xmlns="http://www.w3.org/2000/svg">
<path id="Star 10" d="M4.43907 1.03172C4.64686 0.39222 5.55158 0.392219 5.75936 1.03172L6.26801 2.59718C6.36094 2.88317 6.62745 3.0768 6.92816 3.0768H8.57418C9.24658 3.0768 9.52616 3.93724 8.98217 4.33247L7.65051 5.29998C7.40723 5.47673 7.30543 5.79003 7.39836 6.07602L7.90701 7.64148C8.11479 8.28098 7.38286 8.81276 6.83887 8.41753L5.50721 7.45002C5.26393 7.27327 4.93451 7.27327 4.69123 7.45002L3.35957 8.41753C2.81558 8.81276 2.08365 8.28098 2.29143 7.64148L2.80008 6.07602C2.893 5.79003 2.79121 5.47673 2.54793 5.29998L1.21627 4.33247C0.672279 3.93724 0.951851 3.0768 1.62426 3.0768H3.27028C3.57099 3.0768 3.8375 2.88317 3.93042 2.59718L4.43907 1.03172Z" fill="#D9D9D9"/>
</svg>
