<svg width="18" height="18" viewBox="0 0 18 18" fill="none" xmlns="http://www.w3.org/2000/svg">
<g id="Warning">
<path id="Vector" fill-rule="evenodd" clip-rule="evenodd" d="M0 9C0 5.25027 0 3.3754 0.954915 2.06107C1.26331 1.6366 1.6366 1.26331 2.06107 0.954915C3.3754 0 5.25027 0 9 0C12.7497 0 14.6246 0 15.9389 0.954915C16.3634 1.26331 16.7367 1.6366 17.0451 2.06107C18 3.3754 18 5.25027 18 9C18 12.7497 18 14.6246 17.0451 15.9389C16.7367 16.3634 16.3634 16.7367 15.9389 17.0451C14.6246 18 12.7497 18 9 18C5.25027 18 3.3754 18 2.06107 17.0451C1.6366 16.7367 1.26331 16.3634 0.954915 15.9389C0 14.6246 0 12.7497 0 9ZM9 3.25C9.41421 3.25 9.75 3.58579 9.75 4V10C9.75 10.4142 9.41421 10.75 9 10.75C8.58579 10.75 8.25 10.4142 8.25 10V4C8.25 3.58579 8.58579 3.25 9 3.25ZM9 14C9.55228 14 10 13.5523 10 13C10 12.4477 9.55228 12 9 12C8.44772 12 8 12.4477 8 13C8 13.5523 8.44772 14 9 14Z" fill="#F4A301"/>
</g>
</svg>
