<svg width="24" height="25" viewBox="0 0 24 25" fill="none" xmlns="http://www.w3.org/2000/svg">
<g id="vuesax/bold/message-text">
<g id="message-text">
<path id="Vector" d="M17 2.5H7C4.24 2.5 2 4.73 2 7.48V13.46V14.46C2 17.21 4.24 19.44 7 19.44H8.5C8.77 19.44 9.13 19.62 9.3 19.84L10.8 21.83C11.46 22.71 12.54 22.71 13.2 21.83L14.7 19.84C14.89 19.59 15.19 19.44 15.5 19.44H17C19.76 19.44 22 17.21 22 14.46V7.48C22 4.73 19.76 2.5 17 2.5ZM13 14.25H7C6.59 14.25 6.25 13.91 6.25 13.5C6.25 13.09 6.59 12.75 7 12.75H13C13.41 12.75 13.75 13.09 13.75 13.5C13.75 13.91 13.41 14.25 13 14.25ZM17 9.25H7C6.59 9.25 6.25 8.91 6.25 8.5C6.25 8.09 6.59 7.75 7 7.75H17C17.41 7.75 17.75 8.09 17.75 8.5C17.75 8.91 17.41 9.25 17 9.25Z" fill="white"/>
</g>
</g>
</svg>
