<svg width="32" height="33" viewBox="0 0 32 33" fill="none" xmlns="http://www.w3.org/2000/svg">
<g id="vuesax/bold/money-recive">
<g id="money-recive">
<path id="Vector" d="M25.0801 8.83331H26.8934C26.6401 8.47331 26.3734 8.13997 26.0934 7.80664L25.0801 8.83331Z" fill="#6A9E6C"/>
<path id="Vector_2" d="M24.6927 6.39375C24.3594 6.11375 24.026 5.84708 23.666 5.59375V7.40708L24.6927 6.39375Z" fill="#6A9E6C"/>
<path id="Vector_3" d="M26.1067 7.80659L30.04 3.87326C30.4267 3.48659 30.4267 2.84659 30.04 2.45992C29.6534 2.07326 29.0134 2.07326 28.6267 2.45992L24.6934 6.39326C25.2 6.83326 25.6667 7.31326 26.1067 7.80659Z" fill="#6A9E6C"/>
<path id="Vector_4" d="M23.6664 4.5C23.6664 3.95333 23.213 3.5 22.6664 3.5C22.133 3.5 21.7064 3.92667 21.6797 4.44667C22.373 4.78 23.0397 5.15333 23.6664 5.59333V4.5Z" fill="#6A9E6C"/>
<path id="Vector_5" d="M28.9992 9.83301C28.9992 9.28634 28.5459 8.83301 27.9992 8.83301H26.8926C27.3326 9.45967 27.7192 10.1263 28.0392 10.8197C28.5726 10.793 28.9992 10.3663 28.9992 9.83301Z" fill="#6A9E6C"/>
<path id="Vector_6" d="M17 20.1671H17.4C17.92 20.1671 18.3333 19.7004 18.3333 19.1271C18.3333 18.4071 18.1333 18.3004 17.68 18.1404L17 17.9004V20.1671Z" fill="#6A9E6C"/>
<path id="Vector_7" d="M28.0527 10.8203C28.0394 10.8203 28.026 10.8337 27.9993 10.8337H22.666C22.5327 10.8337 22.4127 10.807 22.2793 10.7537C22.0393 10.647 21.8393 10.4603 21.7327 10.207C21.6927 10.087 21.666 9.96699 21.666 9.83366V4.50033C21.666 4.48699 21.6793 4.47366 21.6793 4.44699C19.946 3.63366 18.026 3.16699 15.9993 3.16699C8.63935 3.16699 2.66602 9.14033 2.66602 16.5003C2.66602 23.8603 8.63935 29.8337 15.9993 29.8337C23.3594 29.8337 29.3327 23.8603 29.3327 16.5003C29.3327 14.4737 28.866 12.5537 28.0527 10.8203ZM18.3327 16.2603C19.186 16.5537 20.3327 17.1803 20.3327 19.1403C20.3327 20.807 19.0127 22.1803 17.3993 22.1803H16.9993V22.5137C16.9993 23.0603 16.546 23.5137 15.9993 23.5137C15.4527 23.5137 14.9993 23.0603 14.9993 22.5137V22.1803H14.8927C13.1193 22.1803 11.666 20.687 11.666 18.847C11.666 18.287 12.1193 17.8337 12.666 17.8337C13.2127 17.8337 13.666 18.287 13.666 18.8337C13.666 19.567 14.2127 20.167 14.8927 20.167H14.9993V17.207L13.666 16.7403C12.8127 16.447 11.666 15.8203 11.666 13.8603C11.666 12.1937 12.986 10.8203 14.5993 10.8203H14.9993V10.5003C14.9993 9.95366 15.4527 9.50033 15.9993 9.50033C16.546 9.50033 16.9993 9.95366 16.9993 10.5003V10.8337H17.106C18.8793 10.8337 20.3327 12.327 20.3327 14.167C20.3327 14.7137 19.8793 15.167 19.3327 15.167C18.786 15.167 18.3327 14.7137 18.3327 14.167C18.3327 13.4337 17.786 12.8337 17.106 12.8337H16.9993V15.7937L18.3327 16.2603Z" fill="#6A9E6C"/>
<path id="Vector_8" d="M13.666 13.873C13.666 14.593 13.866 14.6997 14.3193 14.8597L14.9993 15.0997V12.833H14.5993C14.0927 12.833 13.666 13.2997 13.666 13.873Z" fill="#6A9E6C"/>
</g>
</g>
</svg>
