<svg width="32" height="33" viewBox="0 0 32 33" fill="none" xmlns="http://www.w3.org/2000/svg">
<g id="vuesax/bold/money-send">
<g id="money-send">
<path id="Vector" d="M13.666 13.873C13.666 14.593 13.866 14.6997 14.3193 14.8597L14.9993 15.0997V12.833H14.5993C14.0927 12.833 13.666 13.2997 13.666 13.873Z" fill="#6A9E6C"/>
<path id="Vector_2" d="M17 20.1671H17.4C17.92 20.1671 18.3333 19.7004 18.3333 19.1271C18.3333 18.4071 18.1333 18.3004 17.68 18.1404L17 17.9004V20.1671Z" fill="#6A9E6C"/>
<path id="Vector_3" d="M26.106 7.80699L23.3727 10.5403C23.1727 10.7403 22.9193 10.8337 22.666 10.8337C22.4127 10.8337 22.1593 10.7403 21.9593 10.5403C21.5727 10.1537 21.5727 9.51366 21.9593 9.12699L24.6927 6.39366C22.346 4.39366 19.3193 3.16699 15.9993 3.16699C8.63935 3.16699 2.66602 9.14033 2.66602 16.5003C2.66602 23.8603 8.63935 29.8337 15.9993 29.8337C23.3594 29.8337 29.3327 23.8603 29.3327 16.5003C29.3327 13.1803 28.106 10.1537 26.106 7.80699ZM18.3327 16.2603C19.186 16.567 20.3327 17.1803 20.3327 19.1403C20.3327 20.807 19.0127 22.1803 17.3993 22.1803H16.9993V22.5137C16.9993 23.0603 16.546 23.5137 15.9993 23.5137C15.4527 23.5137 14.9993 23.0603 14.9993 22.5137V22.1803H14.8927C13.1193 22.1803 11.666 20.687 11.666 18.847C11.666 18.287 12.1193 17.8337 12.666 17.8337C13.2127 17.8337 13.666 18.287 13.666 18.8337C13.666 19.567 14.2127 20.167 14.8927 20.167H14.9993V17.207L13.666 16.7403C12.8127 16.4337 11.666 15.8203 11.666 13.8603C11.666 12.1937 12.986 10.8203 14.5993 10.8203H14.9993V10.5003C14.9993 9.95366 15.4527 9.50033 15.9993 9.50033C16.546 9.50033 16.9993 9.95366 16.9993 10.5003V10.8337H17.106C18.8793 10.8337 20.3327 12.327 20.3327 14.167C20.3327 14.7137 19.8793 15.167 19.3327 15.167C18.786 15.167 18.3327 14.7137 18.3327 14.167C18.3327 13.4337 17.786 12.8337 17.106 12.8337H16.9993V15.7937L18.3327 16.2603Z" fill="#6A9E6C"/>
<path id="Vector_4" d="M30.2533 2.78033C30.1467 2.54033 29.96 2.34033 29.7067 2.23366C29.5867 2.19366 29.4667 2.16699 29.3333 2.16699H24C23.4533 2.16699 23 2.62033 23 3.16699C23 3.71366 23.4533 4.16699 24 4.16699H26.92L24.6933 6.39366C25.2 6.83366 25.6667 7.30033 26.1067 7.80699L28.3333 5.58033V8.50033C28.3333 9.04699 28.7867 9.50033 29.3333 9.50033C29.88 9.50033 30.3333 9.04699 30.3333 8.50033V3.16699C30.3333 3.03366 30.3067 2.91366 30.2533 2.78033Z" fill="#6A9E6C"/>
</g>
</g>
</svg>
