<svg width="32" height="32" viewBox="0 0 32 32" fill="none" xmlns="http://www.w3.org/2000/svg">
<g id="vuesax/bold/card-receive">
<g id="card-receive">
<path id="Vector" d="M26.6267 11.6663H22.7067C21.0133 11.6663 20 10.653 20 8.95967V5.03967C20 3.34634 21.0133 2.33301 22.7067 2.33301H26.6267C28.32 2.33301 29.3333 3.34634 29.3333 5.03967V8.95967C29.3333 10.653 28.32 11.6663 26.6267 11.6663ZM26.92 7.25301C26.76 7.09301 26.5467 7.01301 26.3333 7.01301C26.12 7.01301 25.9067 7.09301 25.7467 7.25301L25.5067 7.49301V4.50634C25.5067 4.03967 25.1333 3.66634 24.6667 3.66634C24.2 3.66634 23.8267 4.03967 23.8267 4.50634V7.49301L23.5867 7.25301C23.2667 6.93301 22.7333 6.93301 22.4133 7.25301C22.0933 7.57301 22.0933 8.10634 22.4133 8.42634L24.08 10.093C24.1467 10.1597 24.24 10.213 24.3333 10.253C24.36 10.2663 24.3867 10.2663 24.4133 10.2797C24.48 10.3063 24.5467 10.3197 24.6267 10.3197C24.6533 10.3197 24.68 10.3197 24.7067 10.3197C24.8 10.3197 24.88 10.3063 24.9733 10.2663C24.9867 10.2663 24.9867 10.2663 25 10.2663C25.0933 10.2263 25.1733 10.173 25.24 10.1063C25.2533 10.093 25.2533 10.093 25.2667 10.093L26.9333 8.42634C27.2533 8.10634 27.2533 7.57301 26.92 7.25301Z" fill="#6A9E6C"/>
<path id="Vector_2" d="M2.66602 15.2803V21.947C2.66602 25.0003 5.13268 27.467 8.18602 27.467H23.7994C26.8527 27.467 29.3327 24.987 29.3327 21.9337V15.2803C29.3327 14.387 28.6127 13.667 27.7194 13.667H4.27935C3.38602 13.667 2.66602 14.387 2.66602 15.2803ZM10.666 23.0003H7.99935C7.45268 23.0003 6.99935 22.547 6.99935 22.0003C6.99935 21.4537 7.45268 21.0003 7.99935 21.0003H10.666C11.2127 21.0003 11.666 21.4537 11.666 22.0003C11.666 22.547 11.2127 23.0003 10.666 23.0003ZM19.3327 23.0003H13.9993C13.4527 23.0003 12.9993 22.547 12.9993 22.0003C12.9993 21.4537 13.4527 21.0003 13.9993 21.0003H19.3327C19.8793 21.0003 20.3327 21.4537 20.3327 22.0003C20.3327 22.547 19.8793 23.0003 19.3327 23.0003Z" fill="#6A9E6C"/>
<path id="Vector_3" d="M17.9993 6.14654V10.0532C17.9993 10.9465 17.2793 11.6665 16.386 11.6665H4.27935C3.37268 11.6665 2.66602 10.9199 2.66602 10.0265C2.67935 8.51987 3.27935 7.14654 4.27935 6.14654C5.27935 5.14654 6.66602 4.5332 8.18602 4.5332H16.386C17.2793 4.5332 17.9993 5.2532 17.9993 6.14654Z" fill="#6A9E6C"/>
</g>
</g>
</svg>
