<svg width="32" height="33" viewBox="0 0 32 33" fill="none" xmlns="http://www.w3.org/2000/svg">
<g id="vuesax/bold/card-send">
<g id="card-send">
<path id="Vector" d="M26.6267 2.83301H22.7067C21.0133 2.83301 20 3.84634 20 5.53967V9.45967C20 11.153 21.0133 12.1663 22.7067 12.1663H26.6267C28.32 12.1663 29.3333 11.153 29.3333 9.45967V5.53967C29.3333 3.84634 28.32 2.83301 26.6267 2.83301ZM26.92 7.24634C26.76 7.40634 26.5467 7.48634 26.3333 7.48634C26.12 7.48634 25.9067 7.40634 25.7467 7.24634L25.5067 7.00634V9.99301C25.5067 10.4597 25.1333 10.833 24.6667 10.833C24.2 10.833 23.8267 10.4597 23.8267 9.99301V7.00634L23.5867 7.24634C23.2667 7.56634 22.7333 7.56634 22.4133 7.24634C22.0933 6.92634 22.0933 6.39301 22.4133 6.07301L24.08 4.40634C24.1467 4.33967 24.24 4.28634 24.3333 4.24634C24.36 4.23301 24.3867 4.23301 24.4133 4.21967C24.48 4.19301 24.5467 4.17967 24.6267 4.17967C24.6533 4.17967 24.68 4.17967 24.7067 4.17967C24.8 4.17967 24.88 4.19301 24.9733 4.23301C24.9867 4.23301 24.9867 4.23301 25 4.23301C25.0933 4.27301 25.1733 4.32634 25.24 4.39301C25.2533 4.40634 25.2533 4.40634 25.2667 4.40634L26.9333 6.07301C27.2533 6.39301 27.2533 6.92634 26.92 7.24634Z" fill="#6A9E6C"/>
<path id="Vector_2" d="M2.66602 15.7803V22.447C2.66602 25.5003 5.13268 27.967 8.18602 27.967H23.7994C26.8527 27.967 29.3327 25.487 29.3327 22.4337V15.7803C29.3327 14.887 28.6127 14.167 27.7194 14.167H4.27935C3.38602 14.167 2.66602 14.887 2.66602 15.7803ZM10.666 23.5003H7.99935C7.45268 23.5003 6.99935 23.047 6.99935 22.5003C6.99935 21.9537 7.45268 21.5003 7.99935 21.5003H10.666C11.2127 21.5003 11.666 21.9537 11.666 22.5003C11.666 23.047 11.2127 23.5003 10.666 23.5003ZM19.3327 23.5003H13.9993C13.4527 23.5003 12.9993 23.047 12.9993 22.5003C12.9993 21.9537 13.4527 21.5003 13.9993 21.5003H19.3327C19.8793 21.5003 20.3327 21.9537 20.3327 22.5003C20.3327 23.047 19.8793 23.5003 19.3327 23.5003Z" fill="#6A9E6C"/>
<path id="Vector_3" d="M17.9993 6.64654V10.5532C17.9993 11.4465 17.2793 12.1665 16.386 12.1665H4.27935C3.37268 12.1665 2.66602 11.4199 2.66602 10.5265C2.67935 9.01987 3.27935 7.64654 4.27935 6.64654C5.27935 5.64654 6.66602 5.0332 8.18602 5.0332H16.386C17.2793 5.0332 17.9993 5.7532 17.9993 6.64654Z" fill="#6A9E6C"/>
</g>
</g>
</svg>
