<svg width="25" height="24" viewBox="0 0 25 24" fill="none" xmlns="http://www.w3.org/2000/svg">
<g id="vuesax/bold/discover">
<g id="discover">
<path id="Vector" d="M21.4799 3.0201C20.6099 2.1501 19.3799 1.8101 18.1899 2.1101L8.38986 4.5601C6.73986 4.9701 5.46986 6.2501 5.05986 7.8901L2.60986 17.7001C2.30986 18.8901 2.64986 20.1201 3.51986 20.9901C4.17986 21.6401 5.04986 22.0001 5.94986 22.0001C6.22986 22.0001 6.51986 21.9701 6.79986 21.8901L16.6099 19.4401C18.2499 19.0301 19.5299 17.7601 19.9399 16.1101L22.3899 6.3001C22.6899 5.1101 22.3499 3.8801 21.4799 3.0201ZM12.4999 15.8801C10.3599 15.8801 8.61986 14.1401 8.61986 12.0001C8.61986 9.8601 10.3599 8.1201 12.4999 8.1201C14.6399 8.1201 16.3799 9.8601 16.3799 12.0001C16.3799 14.1401 14.6399 15.8801 12.4999 15.8801Z" fill="white"/>
</g>
</g>
</svg>
